<svg xmlns="http://www.w3.org/2000/svg" xmlns:xlink="http://www.w3.org/1999/xlink" width="20" height="557" viewBox="0 0 20 557"><defs><path id="ookoa" d="M254 1215V685h5v530z"/><path id="ookoc" d="M256 669c5.523 0 10 4.477 10 10s-4.477 10-10 10-10-4.477-10-10 4.477-10 10-10z"/><path id="ookoe" d="M256 838c5.523 0 10 4.477 10 10s-4.477 10-10 10-10-4.477-10-10 4.477-10 10-10z"/><path id="ookog" d="M256 1206c5.523 0 10 4.477 10 10s-4.477 10-10 10-10-4.477-10-10 4.477-10 10-10z"/><path id="ookoi" d="M256 1013c5.523 0 10 4.477 10 10s-4.477 10-10 10-10-4.477-10-10 4.477-10 10-10z"/><linearGradient id="ookob" x1="256" x2="257" y1="1215" y2="685" gradientUnits="userSpaceOnUse"><stop offset="0" stop-color="#80c3c9"/><stop offset="1" stop-color="#3e72ab"/></linearGradient><linearGradient id="ookod" x1="253" x2="259" y1="669" y2="689" gradientUnits="userSpaceOnUse"><stop offset="0" stop-color="#3e72ab"/><stop offset="1" stop-color="#80c3c9"/></linearGradient><linearGradient id="ookof" x1="246" x2="266" y1="846" y2="850" gradientUnits="userSpaceOnUse"><stop offset="0" stop-color="#4075ac"/><stop offset="1" stop-color="#80c3c9"/></linearGradient><linearGradient id="ookoh" x1="255" x2="257" y1="1226" y2="1206" gradientUnits="userSpaceOnUse"><stop offset="0" stop-color="#3e72ab"/><stop offset="1" stop-color="#80c3c9"/></linearGradient><linearGradient id="ookoj" x1="255" x2="257" y1="1033" y2="1013" gradientUnits="userSpaceOnUse"><stop offset="0" stop-color="#3e72ab"/><stop offset="1" stop-color="#80c3c9"/></linearGradient></defs><g><g transform="translate(-246 -669)"><use fill="url(#ookob)" xlink:href="#ookoa"/></g><g transform="translate(-246 -669)"><use fill="url(#ookod)" xlink:href="#ookoc"/></g><g transform="translate(-246 -669)"><use fill="url(#ookof)" xlink:href="#ookoe"/></g><g transform="translate(-246 -669)"><use fill="url(#ookoh)" xlink:href="#ookog"/></g><g transform="translate(-246 -669)"><use fill="url(#ookoj)" xlink:href="#ookoi"/></g></g></svg>